<svg width="368" height="298" viewBox="0 0 368 298" fill="none" xmlns="http://www.w3.org/2000/svg">
<g clip-path="url(#clip0)">
<path d="M351.523 146.63C351.523 71.4338 290.566 10.4738 215.37 10.4738C140.173 10.4738 79.2166 71.4338 79.2166 146.63C79.2166 192.17 101.601 232.465 135.944 257.179L123.379 291.447C123.191 291.958 123.13 292.508 123.2 293.048C123.27 293.589 123.469 294.105 123.781 294.552C124.093 294.999 124.509 295.364 124.992 295.616C125.475 295.868 126.012 296 126.558 296H304.192C304.737 296 305.275 295.869 305.759 295.617C306.242 295.365 306.658 295 306.971 294.553C307.283 294.106 307.483 293.59 307.553 293.049C307.623 292.508 307.562 291.959 307.374 291.447L294.802 257.179C329.145 232.465 351.529 192.17 351.529 146.63" fill="#FF642D"/>
<path d="M351.523 146.63C351.523 71.4338 290.566 10.4738 215.37 10.4738C140.173 10.4738 79.2166 71.4338 79.2166 146.63C79.2166 192.17 101.601 232.465 135.944 257.179L123.379 291.447C123.191 291.958 123.13 292.508 123.2 293.048C123.27 293.589 123.469 294.105 123.781 294.552C124.093 294.999 124.509 295.364 124.992 295.616C125.475 295.868 126.012 296 126.558 296H304.192C304.737 296 305.275 295.869 305.759 295.617C306.242 295.365 306.658 295 306.971 294.553C307.283 294.106 307.483 293.59 307.553 293.049C307.623 292.508 307.562 291.959 307.374 291.447L294.802 257.179C329.145 232.465 351.529 192.17 351.529 146.63" stroke="white" stroke-width="2" stroke-miterlimit="10"/>
<mask id="mask0" style="mask-type:alpha" maskUnits="userSpaceOnUse" x="13" y="-1" width="339" height="297">
<path d="M351.523 146.63C351.523 110.608 337.534 77.8529 314.693 53.501C289.853 27.0183 283.086 -1 243.912 -1C168.716 -1 13 18.4632 13 93.6596C13 139.2 30.2898 270.286 64.6325 295H126.558L304.192 296C304.737 296 305.275 295.869 305.759 295.617C306.242 295.365 306.658 295 306.971 294.553C307.283 294.106 307.483 293.59 307.553 293.049C307.623 292.509 307.562 291.959 307.374 291.447L294.802 257.179C329.145 232.465 351.53 192.17 351.53 146.63" fill="#FFB26E"/>
</mask>
<g mask="url(#mask0)">
<path d="M227.836 192.733L227.918 187.409H220.179L219.718 188.596L177.384 170.823L173.793 171.743L151.255 74.6877C150.555 71.6351 147.786 69.5716 144.842 69.9127L24.1264 83.7022L22.3187 81.4512L18.0826 85.1518C17.2051 85.8543 16.5464 86.7927 16.1839 87.8567C15.8214 88.9206 15.7701 90.066 16.0362 91.1581L41.0743 201.393C41.3635 202.662 41.9488 203.844 42.7822 204.844C43.6156 205.843 44.6736 206.631 45.8698 207.143L106.523 233.113C109.602 234.43 113.062 234.552 116.226 233.454L226.649 195.087C227.115 194.927 227.5 194.591 227.722 194.152C227.943 193.712 227.984 193.203 227.836 192.733V192.733Z" fill="black" stroke="black" stroke-width="1.2" stroke-linecap="round" stroke-linejoin="round"/>
<path d="M46.4802 201.567L106.509 227.267C109.588 228.586 113.049 228.707 116.213 227.608L226.652 189.247C227.015 189.122 227.331 188.889 227.558 188.58C227.786 188.27 227.914 187.9 227.926 187.516C227.938 187.132 227.834 186.754 227.627 186.431C227.419 186.108 227.119 185.856 226.765 185.707L177.384 164.987L46.4802 201.567Z" fill="#FF642D" stroke="black" stroke-width="1.2" stroke-linecap="round" stroke-linejoin="round"/>
<path d="M177.384 164.987L46.4804 201.567L20.5111 87.2461C19.7369 83.8354 21.8993 80.5577 25.1565 80.1859L149.331 65.9836C152.278 65.6425 155.044 67.689 155.747 70.7586L177.384 164.987Z" fill="white" stroke="black" stroke-width="1.2" stroke-linecap="round" stroke-linejoin="round"/>
<path d="M157.377 77.8666L22.4962 95.998L20.5111 87.2461C19.7369 83.8354 21.8993 80.5577 25.1565 80.1859L149.331 65.9836C152.278 65.6425 155.044 67.689 155.747 70.7586L157.377 77.8666Z" fill="black"/>
<path d="M37.725 86.332C38.1172 88.0579 36.9405 89.6507 35.0885 89.8894C33.2365 90.1282 31.3878 88.9106 30.9956 87.1609C30.6034 85.4111 31.7971 83.8252 33.6628 83.6C35.5285 83.3749 37.3327 84.6062 37.725 86.332Z" fill="white"/>
<path d="M47.6606 85.0938C48.046 86.7992 46.9068 88.3682 45.1025 88.6001C44.2232 88.7123 43.3331 88.5013 42.5978 88.0062C41.8625 87.5112 41.332 86.7659 41.1052 85.909C40.7129 84.2036 41.876 82.6211 43.6905 82.4028C44.5653 82.2983 45.4485 82.513 46.1778 83.0073C46.9071 83.5017 47.4336 84.2425 47.6606 85.0938Z" fill="#FF642D"/>
<path d="M129.706 100.142L135.923 119.883C136.725 122.431 139.754 123.294 141.381 121.425L153.591 107.352C155.14 105.569 154.164 102.461 151.835 101.745L133.417 96.0765C130.957 95.3296 128.901 97.5841 129.706 100.142ZM136.909 101.633L146.868 104.648C148.038 104.989 148.523 106.551 147.745 107.438L141.115 115.003C140.32 115.91 138.829 115.48 138.434 114.225L135.101 103.635C134.709 102.38 135.715 101.261 136.909 101.633Z" fill="#FF642D"/>
<path d="M134.552 151.17L131.278 150.403L137.649 116.422L140.821 117.325L134.552 151.17Z" fill="#FF642D" stroke="#FF642D" stroke-width="1.2" stroke-linecap="round" stroke-linejoin="round"/>
<path d="M137.939 147.445L138.492 144.437L139.61 144.71L140.487 139.911L135.207 138.584L134.757 140.996L134.307 143.414L133.744 146.436L133.512 147.681L132.932 150.791L139.542 152.34L140.327 148.018L137.939 147.445Z" fill="#FF642D" stroke="#FF642D" stroke-width="1.2" stroke-linecap="round" stroke-linejoin="round"/>
<path d="M108.331 105.108C102.14 103.338 95.9632 106.939 94.616 113.222C93.2688 119.505 97.3446 126.053 103.661 127.666C109.876 129.252 115.848 125.48 117.079 119.303C118.304 113.178 114.422 106.851 108.331 105.108ZM104.408 124.054C100.121 122.939 97.348 118.509 98.2689 114.208C98.475 113.205 98.8877 112.257 99.4805 111.423C100.073 110.589 100.833 109.888 101.712 109.364C102.591 108.84 103.57 108.505 104.585 108.38C105.601 108.255 106.631 108.343 107.611 108.638C111.792 109.811 114.47 114.163 113.621 118.365C113.427 119.364 113.028 120.312 112.45 121.149C111.872 121.986 111.126 122.694 110.261 123.228C109.395 123.763 108.428 124.112 107.421 124.254C106.414 124.396 105.388 124.328 104.408 124.054V124.054Z" fill="#FF642D" stroke="#FF642D" stroke-width="1.2" stroke-linecap="round" stroke-linejoin="round"/>
<path d="M98.8251 160.099L95.2131 159.332L102.43 124.655L105.936 125.562L98.8251 160.099Z" fill="#FF642D" stroke="#FF642D" stroke-width="1.2" stroke-linecap="round" stroke-linejoin="round"/>
<path d="M101.748 152.831L104.876 153.527L105.357 151.163L103.866 150.826L104.449 147.961L99.6847 146.869L97.0243 159.717L103.348 161.058L104.197 156.873L101.059 156.191L101.748 152.831Z" fill="#FF642D" stroke="#FF642D" stroke-width="1.2" stroke-linecap="round" stroke-linejoin="round"/>
<path d="M59.4036 169.602L55.3892 168.838L63.0497 135.678L66.9481 136.586L59.4036 169.602Z" fill="#FF642D" stroke="#FF642D" stroke-width="1.2" stroke-linecap="round" stroke-linejoin="round"/>
<path d="M64.2333 164.427L67.6918 165.11L68.4933 161.539L61.5661 160.137L59.4037 169.602L64.646 170.597L65.3622 167.313L63.633 166.979L64.2333 164.427Z" fill="#FF642D" stroke="#FF642D" stroke-width="1.2" stroke-linecap="round" stroke-linejoin="round"/>
<path d="M76.5018 125.463C77.0683 124.592 77.4749 123.626 77.7023 122.612C78.8074 117.673 75.5706 112.584 70.4341 111.224C65.2293 109.842 59.9836 112.782 58.7932 117.823C58.5428 118.897 58.4931 120.009 58.6466 121.101C54.0216 120.879 49.7616 123.792 48.677 128.291C47.4253 133.479 50.8871 138.734 56.3307 139.962C57.7322 140.288 59.187 140.312 60.5984 140.032C62.0098 139.752 63.3454 139.175 64.5164 138.339C65.1867 139.58 66.1158 140.664 67.2409 141.515C68.366 142.366 69.6608 142.966 71.0378 143.274C76.2187 144.444 81.27 141.293 82.3784 136.292C83.3505 131.78 80.7856 127.213 76.5018 125.463ZM71.8836 139.447C70.766 139.194 69.7502 138.61 68.9676 137.773C68.1851 136.936 67.6717 135.883 67.494 134.751C68.1284 131.985 64.0048 130.999 63.3636 133.779C62.6914 134.732 61.7483 135.461 60.6566 135.871C59.5649 136.282 58.375 136.355 57.2414 136.081C54.0796 135.354 52.0741 132.295 52.8074 129.259C53.5407 126.224 56.6684 124.447 59.7994 125.211C59.9972 125.259 60.1882 125.317 60.3758 125.381C62.8622 127.578 65.6897 124.58 63.2238 122.394C62.6787 121.289 62.5317 120.03 62.8077 118.829C63.4898 115.893 66.5595 114.16 69.5882 114.951C72.6169 115.743 74.5201 118.727 73.8619 121.63C73.5709 122.911 72.8025 124.033 71.7131 124.768C68.9606 125.6 70.2396 129.454 73.0194 128.598C73.4515 128.603 73.8817 128.657 74.3018 128.758C75.7336 129.095 76.9774 129.978 77.7685 131.218C78.5596 132.458 78.8357 133.958 78.538 135.399C78.3697 136.104 78.0634 136.769 77.6366 137.354C77.2099 137.94 76.6712 138.436 76.0518 138.812C75.4324 139.189 74.7445 139.439 74.0279 139.548C73.3113 139.657 72.5801 139.623 71.8768 139.447H71.8836Z" fill="#FF642D" stroke="#FF642D" stroke-width="1.2" stroke-linecap="round" stroke-linejoin="round"/>
<path d="M103.528 198.409L96.209 195.312" stroke="black" stroke-width="1.2" stroke-linecap="round" stroke-linejoin="round"/>
<path d="M117.99 204.524L110.79 201.478" stroke="black" stroke-width="1.2" stroke-linecap="round" stroke-linejoin="round"/>
<path d="M84.1382 204.234L186.931 173.353" stroke="black" stroke-width="1.2" stroke-linecap="round" stroke-linejoin="round"/>
<path d="M76.5356 201.079L180.771 170.529" stroke="black" stroke-width="1.2" stroke-linecap="round" stroke-linejoin="round"/>
<path d="M91.676 207.362L193.05 176.157" stroke="black" stroke-width="1.2" stroke-linecap="round" stroke-linejoin="round"/>
<path d="M99.1523 210.465L199.121 178.943" stroke="black" stroke-width="1.2" stroke-linecap="round" stroke-linejoin="round"/>
<path d="M121.923 192.883L114.866 189.844" stroke="black" stroke-width="1.2" stroke-linecap="round" stroke-linejoin="round"/>
<path d="M139.395 187.634L132.584 184.65" stroke="black" stroke-width="1.2" stroke-linecap="round" stroke-linejoin="round"/>
<path d="M156.016 182.641L149.433 179.711" stroke="black" stroke-width="1.2" stroke-linecap="round" stroke-linejoin="round"/>
<path d="M171.842 177.886L165.478 175.011" stroke="black" stroke-width="1.2" stroke-linecap="round" stroke-linejoin="round"/>
<path d="M135.869 198.886L128.925 195.898" stroke="black" stroke-width="1.2" stroke-linecap="round" stroke-linejoin="round"/>
<path d="M152.861 193.528L146.156 190.591" stroke="black" stroke-width="1.2" stroke-linecap="round" stroke-linejoin="round"/>
<path d="M169.028 188.432L162.548 185.547" stroke="black" stroke-width="1.2" stroke-linecap="round" stroke-linejoin="round"/>
<path d="M184.431 183.576L178.159 180.741" stroke="black" stroke-width="1.2" stroke-linecap="round" stroke-linejoin="round"/>
<path d="M119.975 198.651L112.846 195.608" stroke="black" stroke-width="1.2" stroke-linecap="round" stroke-linejoin="round"/>
<path d="M101.359 204.381L93.9612 201.28" stroke="black" stroke-width="1.2" stroke-linecap="round" stroke-linejoin="round"/>
<path d="M137.649 193.21L130.77 190.226" stroke="black" stroke-width="1.2" stroke-linecap="round" stroke-linejoin="round"/>
<path d="M154.45 188.04L147.81 185.107" stroke="black" stroke-width="1.2" stroke-linecap="round" stroke-linejoin="round"/>
<path d="M170.447 183.115L164.025 180.236" stroke="black" stroke-width="1.2" stroke-linecap="round" stroke-linejoin="round"/>
<path d="M185.693 178.422L179.475 175.594" stroke="black" stroke-width="1.2" stroke-linecap="round" stroke-linejoin="round"/>
<path d="M192.433 194.814L148.823 209.521C147.067 210.111 145.155 210.036 143.451 209.309L135.286 205.827C135.049 205.726 134.849 205.554 134.712 205.336C134.575 205.118 134.508 204.863 134.52 204.606C134.532 204.348 134.622 204.101 134.779 203.896C134.935 203.691 135.15 203.539 135.395 203.46L180.198 189.043C181.974 188.471 183.899 188.578 185.601 189.343L192.545 192.457C192.777 192.562 192.972 192.734 193.105 192.951C193.237 193.168 193.302 193.42 193.29 193.674C193.278 193.928 193.19 194.172 193.037 194.376C192.884 194.579 192.673 194.732 192.433 194.814V194.814Z" stroke="black" stroke-width="1.2" stroke-linecap="round" stroke-linejoin="round"/>
<mask id="mask1" style="mask-type:alpha" maskUnits="userSpaceOnUse" x="20" y="65" width="138" height="31">
<path d="M157.377 77.8666L22.4962 95.998L20.5111 87.2461C19.7369 83.8354 21.8993 80.5577 25.1565 80.1859L149.331 65.9836C152.278 65.6425 155.044 67.689 155.747 70.7586L157.377 77.8666Z" fill="black"/>
</mask>
<g mask="url(#mask1)">
<path d="M25.7774 105.098L21.3776 85.742C20.6067 82.3313 22.7691 79.0535 26.0264 78.6818" stroke="white" stroke-width="1.2" stroke-linecap="round" stroke-linejoin="round"/>
</g>
<path d="M214.353 56.6107L209.387 55.683C209.544 79.9231 218.77 98.7878 229.255 104.654C220.731 97.9283 213.579 64.9022 214.353 56.6107Z" fill="white"/>
<path d="M243.207 156.063C246.318 145.798 244.876 136.276 239.987 134.794C235.098 133.312 228.613 140.433 225.502 150.697C222.391 160.962 223.833 170.484 228.722 171.966C233.611 173.448 240.096 166.328 243.207 156.063Z" fill="black" stroke="black" stroke-width="1.2" stroke-linecap="round" stroke-linejoin="round"/>
<path d="M198.872 160.15C205.127 163.725 214.694 167.961 226.802 168.858C229.918 169.09 233.046 169.09 236.161 168.858C240.841 166.47 249.896 140.641 241.465 135.566L206.805 126.78L198.227 133.011L198.872 160.15Z" fill="#FF642D"/>
<path d="M218.644 167.865C218.636 167.853 218.627 167.842 218.616 167.831V167.831L192.105 117.748L184.281 121.889L210.772 171.914C210.774 171.952 210.783 171.989 210.799 172.023C211.072 172.535 213.047 172.023 215.213 170.867C217.378 169.711 218.913 168.377 218.644 167.865Z" fill="black"/>
<path d="M195.61 117.454C203.954 113.036 204.369 97.4641 196.537 82.6729C188.706 67.8816 175.593 59.4722 167.249 63.89C158.906 68.3077 158.491 83.8797 166.322 98.671C174.154 113.462 187.266 121.872 195.61 117.454Z" fill="white" stroke="black" stroke-width="1.2" stroke-linecap="round" stroke-linejoin="round"/>
<path d="M187.441 118.236C194.924 114.274 195.297 100.309 188.273 87.044C181.25 73.7793 169.49 66.238 162.007 70.2001C154.524 74.1621 154.152 88.1272 161.175 101.392C168.198 114.657 179.958 122.198 187.441 118.236Z" fill="#FF642D" stroke="black" stroke-width="1.2" stroke-linecap="round" stroke-linejoin="round"/>
<path d="M166.32 98.6481C158.475 83.8592 158.902 68.2926 167.244 63.8586L156.064 69.7797C147.718 74.1966 147.305 89.77 155.136 104.569C162.967 119.368 176.085 127.762 184.428 123.349L195.611 117.428C187.265 121.848 174.151 113.44 166.32 98.6481Z" fill="#FF642D" stroke="black" stroke-width="1.2" stroke-linecap="round" stroke-linejoin="round"/>
<path d="M172.169 66.1918C175.277 66.1918 179.028 67.8426 182.743 70.844C186.853 74.1695 190.553 78.8183 193.449 84.2857C196.959 90.9162 198.804 97.857 198.647 103.836C198.507 109.01 196.809 112.837 193.978 114.334C192.963 114.858 191.835 115.122 190.693 115.105C187.586 115.105 183.834 113.454 180.12 110.453C176.01 107.127 172.309 102.479 169.414 97.0111C165.904 90.3807 164.055 83.4398 164.216 77.4608C164.352 72.2867 166.054 68.4599 168.885 66.9626C169.9 66.4392 171.028 66.1744 172.169 66.1918V66.1918ZM172.169 62.6889C170.456 62.6707 168.764 63.0761 167.244 63.8691C158.902 68.303 158.486 83.8594 166.32 98.6585C172.739 110.78 182.692 118.618 190.686 118.618C192.4 118.636 194.091 118.232 195.611 117.441C203.954 113.007 204.37 97.4477 196.536 82.652C190.117 70.5302 180.164 62.6924 172.169 62.6924V62.6889Z" fill="white" stroke="black" stroke-width="1.2" stroke-linecap="round" stroke-linejoin="round"/>
<path d="M259.627 144.488C257.206 143.465 254.341 142.22 251.783 140.982C247.847 139.072 244.204 137.111 240.868 135.184C245.043 137.489 246.128 146.46 243.211 156.081C240.101 166.344 233.614 173.476 228.726 171.982C228.152 171.805 227.619 171.519 227.154 171.14V171.14C233.48 176.08 240.062 180.685 246.871 184.936C252.396 188.384 256.029 190.393 260.927 192.416" stroke="black" stroke-width="1.2" stroke-linecap="round" stroke-linejoin="round"/>
<path d="M251.09 140.641C247.424 138.84 244.01 137.002 240.858 135.184C245.033 137.489 246.118 146.46 243.201 156.081C240.091 166.344 233.604 173.476 228.716 171.982C228.142 171.805 227.609 171.519 227.144 171.14V171.14C230.674 173.899 234.501 176.716 238.621 179.54C243.481 182.743 250.534 173.435 253.734 162.879C256.933 152.323 256.094 142.994 251.09 140.641Z" fill="white" stroke="black" stroke-width="1.2" stroke-linecap="round" stroke-linejoin="round"/>
<path d="M197.61 159.274C204.431 164.567 214.694 167.954 226.802 168.851C229.918 169.084 233.046 169.084 236.162 168.851" stroke="black" stroke-width="1.2" stroke-linecap="round" stroke-linejoin="round"/>
<path d="M225.36 151.03C223.76 150.488 214.705 145.201 212.859 134.26C209.65 132.534 199.039 129.846 195.765 125.085C195.533 124.738 195.389 124.339 195.347 123.924C195.305 123.509 195.366 123.089 195.524 122.703C195.682 122.317 195.932 121.975 196.253 121.708C196.574 121.441 196.956 121.257 197.364 121.173C207.938 119.044 227.137 127.653 241.479 135.566" fill="#FF642D"/>
<path d="M225.36 151.03C223.76 150.488 214.705 145.201 212.859 134.26C209.65 132.534 199.039 129.846 195.765 125.085C195.533 124.738 195.389 124.339 195.347 123.924C195.305 123.509 195.366 123.089 195.524 122.703C195.682 122.317 195.932 121.975 196.253 121.708C196.574 121.441 196.956 121.257 197.364 121.173C207.938 119.044 227.137 127.653 241.479 135.566" stroke="black" stroke-width="1.2" stroke-linecap="round" stroke-linejoin="round"/>
<path d="M188.81 141.272C185.546 141.32 183.902 140.573 183.411 138.404C182.173 132.899 198.998 126.391 204.097 129.406C209.06 133.294 192.497 140.259 188.81 141.272Z" fill="#FF642D"/>
<path d="M193.354 129.976C187.842 131.818 182.726 135.273 183.408 138.404C183.844 140.338 185.205 141.132 187.811 141.255C184.278 138.608 190.724 131.279 193.354 129.976Z" fill="white"/>
<path d="M188.81 141.272C185.546 141.32 183.902 140.573 183.411 138.404C182.173 132.899 198.998 126.391 204.097 129.406C209.06 133.294 192.497 140.259 188.81 141.272Z" stroke="black" stroke-width="1.2" stroke-linecap="round" stroke-linejoin="round"/>
<path d="M192.958 148.858C190.396 149.294 187.477 149.519 186.3 147.152C183.64 141.831 201.734 131.463 207.218 133.717C214.077 137.612 196.911 147.756 192.958 148.858Z" fill="#FF642D"/>
<path d="M190.737 149.12C188.145 146.688 195.171 138.045 197.34 135.644C190.979 138.612 184.635 143.854 186.283 147.156C187.132 148.851 188.865 149.212 190.737 149.12Z" fill="white"/>
<path d="M192.958 148.858C190.396 149.294 187.477 149.519 186.3 147.152C183.64 141.831 201.734 131.463 207.218 133.717C214.077 137.612 196.911 147.756 192.958 148.858Z" stroke="black" stroke-width="1.2" stroke-linecap="round" stroke-linejoin="round"/>
<path d="M197.415 155.74C193.943 157.217 191.651 155.287 190.962 153.677C188.524 148.018 206.335 138.584 210.693 139.867C217.286 143.158 201.058 154.523 197.415 155.74Z" fill="#FF642D"/>
<path d="M199.745 143.308C194.431 146.292 189.625 150.556 190.962 153.677C191.299 154.411 191.831 155.04 192.499 155.494C193.168 155.949 193.948 156.212 194.755 156.255C192.037 153.434 198.053 145.76 199.745 143.308Z" fill="white"/>
<path d="M197.415 155.74C193.943 157.217 191.651 155.287 190.962 153.677C188.524 148.018 206.335 138.584 210.693 139.867C217.286 143.158 201.058 154.523 197.415 155.74Z" stroke="black" stroke-width="1.2" stroke-linecap="round" stroke-linejoin="round"/>
<path d="M203.391 160.542C200.543 161.419 197.712 159.918 197.105 158.554C194.953 153.718 210.178 145.065 213.899 146.156C219.524 148.966 206.498 159.502 203.391 160.542Z" fill="#FF642D"/>
<path d="M197.105 158.554C197.484 159.403 198.725 160.307 200.294 160.655L200.686 160.901C199.083 158.35 200.87 152.374 202.583 150.617C198.916 153.169 196.092 156.283 197.105 158.554Z" fill="white"/>
<path d="M207.545 164.352C206.396 163.916 197.995 160.805 197.105 158.554C195.158 153.633 210.178 145.065 213.9 146.156C219.524 148.967 206.498 159.502 203.391 160.543" stroke="black" stroke-width="1.2" stroke-linecap="round" stroke-linejoin="round"/>
<path d="M173.708 80.0426C173.278 80.5883 176.402 82.8394 180.297 88.3852C184.765 94.7428 185.754 99.0267 186.413 98.8186C187.252 98.5594 187.18 91.356 182.954 85.9158C179.509 81.4785 174.216 79.3945 173.708 80.0426Z" fill="white"/>
<path d="M209.749 46.5662C206.884 80.0732 221.403 105.879 235.469 106.554C245.793 107.049 256.578 95.8103 263.4 81.8365" stroke="black" stroke-width="1.2" stroke-linecap="round" stroke-linejoin="round"/>
<path d="M265.948 114.446C255.876 130.992 260.19 181.832 261.398 198.773" stroke="black" stroke-width="1.2" stroke-linecap="round" stroke-linejoin="round"/>
<path d="M185.27 188.927C185.338 187.491 185.836 177.382 189.953 176.713C190.29 176.663 190.634 176.69 190.959 176.791C191.539 176.976 192.053 177.325 192.44 177.795C192.827 178.265 193.069 178.837 193.139 179.442C196.791 208.406 229.193 219.985 245.142 214.835C277.517 204.398 257.254 149.922 269.293 135.566L284.468 142.271L310.969 205.404C306.378 224.845 299.97 238.403 290.437 244.372C262.871 261.63 228.944 270.003 189.394 240.736C174.322 229.869 147.1 203.392 135.289 193.613C132.874 190.82 134.228 188.985 134.907 188.279C136.954 186.168 143.775 189.186 155.999 195.953" fill="#FF642D"/>
<path d="M269.853 154.362C269.707 153.045 269.202 151.794 268.393 150.744C267.584 149.694 266.502 148.887 265.265 148.411C263.284 170.052 271.013 206.496 245.142 214.835C237.031 217.451 224.678 215.739 213.992 209.623C213.412 210.833 212.831 212.045 212.249 213.259C215.288 216.915 235.589 227.298 253.7 219.528C272.145 211.615 272.554 178.446 269.853 154.362Z" fill="white"/>
<path d="M166.695 185.223C165.484 183.971 158.823 174.189 158.131 173.149C156.262 170.345 156.21 168.391 157.653 167.692C159.724 166.689 169.591 171.464 187.463 191.331" fill="#FF642D"/>
<path d="M160.477 187.613C154.846 183.551 137.172 174.492 134.979 179.247C132.99 183.551 151.541 192.439 155.995 195.959" fill="#FF642D"/>
<path d="M160.477 187.614C156.023 184.101 140.245 176.812 142.233 172.508C144.427 167.753 164.615 178.002 170.246 182.058L173.725 181.376L187.463 191.816L158.735 201.639L156.006 195.929" fill="#FF642D"/>
<path d="M153.079 194.36C142.684 188.729 136.766 186.345 134.904 188.279C134.548 188.639 134.271 189.068 134.089 189.541C136.831 188.678 151.132 195.042 153.079 194.36Z" fill="white"/>
<path d="M159.874 187.184C153.874 183.091 138.164 175.185 135.241 178.845L134.853 179.769C137.874 178.108 157.391 187.617 159.874 187.184Z" fill="white"/>
<path d="M169.192 181.345C162.619 177.027 145.153 168.432 142.414 172.225C142.636 172.381 141.613 173.278 142.073 173.132C147.81 171.273 163.414 181.178 169.192 181.345Z" fill="white"/>
<path d="M175.362 178.944C165.068 169.414 159.195 166.948 157.653 167.688C157.312 167.855 156.814 168.964 156.63 169.274C158.851 168.142 172.47 178.944 175.362 178.944Z" fill="white"/>
<path d="M189.745 176.839C185.628 177.521 185.338 187.491 185.27 188.927C185.27 188.927 185.666 190.789 187.463 191.335C187.508 188.606 187.982 178.149 191.246 177.01L189.745 176.839Z" fill="white"/>
<path d="M159.874 200.271C163.548 193.852 168.84 188.507 175.222 184.769" stroke="black" stroke-width="1.2" stroke-linecap="round" stroke-linejoin="round"/>
<path d="M218.903 212.079C214.161 210.041 209.783 207.242 205.942 203.794V203.794C195.448 201.168 182.207 228.116 189.411 240.749C194.203 245.183 199.634 248.87 205.523 251.688C200.489 246.735 205.697 210.94 218.937 212.103L218.903 212.079Z" fill="white" stroke="black" stroke-width="1.2" stroke-linecap="round" stroke-linejoin="round"/>
<path d="M155.996 195.953C143.768 189.186 136.933 186.168 134.904 188.279C134.222 188.985 132.857 190.82 135.286 193.613C147.097 203.392 174.318 229.876 189.39 240.736C214.353 264.345 262.005 265.941 289.154 245.378C307.047 231.82 311.242 210.09 311.02 189.138" stroke="black" stroke-width="1.2" stroke-linecap="round" stroke-linejoin="round"/>
<path d="M185.27 188.927C185.338 187.491 185.836 177.381 189.953 176.713C190.29 176.663 190.634 176.69 190.959 176.791C191.539 176.976 192.054 177.324 192.44 177.795C192.827 178.265 193.069 178.837 193.139 179.441C196.792 208.405 229.194 219.985 245.142 214.835C273.076 205.827 261.821 164.035 265.948 143.52" stroke="black" stroke-width="1.2" stroke-linecap="round" stroke-linejoin="round"/>
<path d="M160.972 176.601C156.504 171.962 155.675 168.65 157.653 167.695C159.724 166.692 169.591 171.467 187.463 191.335" stroke="black" stroke-width="1.2" stroke-linecap="round" stroke-linejoin="round"/>
<path d="M160.477 187.613C154.846 183.551 137.172 174.492 134.979 179.247C132.99 183.551 151.541 192.439 155.995 195.959" stroke="black" stroke-width="1.2" stroke-linecap="round" stroke-linejoin="round"/>
<path d="M170.246 182.064C164.615 178.002 144.427 167.739 142.233 172.514C140.245 176.819 156.023 184.111 160.477 187.621" stroke="black" stroke-width="1.2" stroke-linecap="round" stroke-linejoin="round"/>
<path d="M242.598 57.8388C243.928 54.087 246.465 51.147 249.218 51.0174C253.689 50.7888 258.209 58.0435 256.476 63.4017C255.586 66.1542 253.28 67.6924 252.206 68.3132" stroke="black" stroke-width="1.2" stroke-linecap="round" stroke-linejoin="round"/>
<path d="M230.295 41.7947L207.399 40.5361L190.041 42.395C188.836 42.5251 187.71 43.056 186.842 43.9025C185.304 45.3998 183.06 47.7055 183.271 48.183C183.572 48.8117 183.946 49.4025 184.386 49.9429C191.447 58.9984 213.828 58.6881 229.773 59.5817C229.722 56.5427 229.746 49.404 230.295 41.7947Z" fill="black"/>
<path d="M206.485 57.6136C218.569 58.6879 231.786 59.3394 245.984 59.2712C258.638 59.2098 270.494 58.589 281.456 57.6136C281.456 47.8793 273.199 5.16672 244.429 4.29016C207.406 5.16672 206.106 54.4382 206.485 57.6136Z" fill="black" stroke="black" stroke-width="1.2" stroke-linecap="round" stroke-linejoin="round"/>
<path d="M244.883 4.29016C229.742 8.8162 229.65 51.0172 229.797 60.1409" stroke="#FF642D" stroke-width="1.2" stroke-linecap="round" stroke-linejoin="round"/>
<path d="M244.883 4.29016C260.026 8.8162 260.398 51.0172 260.251 60.1409" stroke="#FF642D" stroke-width="1.2" stroke-linecap="round" stroke-linejoin="round"/>
<path d="M236.39 2.41089V4.96212C236.39 5.66814 240.193 6.23773 244.883 6.23773C249.573 6.23773 253.376 5.66814 253.376 4.96212V2.41089H236.39Z" fill="black" stroke="black" stroke-width="1.2" stroke-linecap="round" stroke-linejoin="round"/>
<path d="M244.883 3.68648C249.573 3.68648 253.376 3.11537 253.376 2.41087C253.376 1.70637 249.573 1.13525 244.883 1.13525C240.192 1.13525 236.39 1.70637 236.39 2.41087C236.39 3.11537 240.192 3.68648 244.883 3.68648Z" fill="#FF642D" stroke="black" stroke-width="1.2" stroke-linecap="round" stroke-linejoin="round"/>
<path d="M229.255 53.0091C216.85 52.3269 206.601 50.4954 207.218 39.8607" stroke="#FF642D" stroke-width="1.2" stroke-linecap="round" stroke-linejoin="round"/>
<path d="M210.642 70.3525C209.339 70.7584 201.044 72.7196 201.478 76.5669C201.979 80.9804 209.384 80.1925 212.733 79.4558" stroke="black" stroke-width="1.2" stroke-linecap="round" stroke-linejoin="round"/>
<path d="M265.385 113.407L249.825 114.839C249.014 114.916 248.198 114.764 247.469 114.401C246.74 114.037 246.128 113.476 245.701 112.782C245.275 112.088 245.052 111.289 245.057 110.474C245.063 109.659 245.297 108.863 245.732 108.174C251.576 98.9132 257.42 89.3631 263.263 79.5243C271.11 66.2815 278.493 53.2855 285.413 40.5362C285.763 39.8925 286.272 39.3489 286.891 38.9569C287.51 38.5649 288.219 38.3375 288.951 38.2962C289.682 38.2548 290.412 38.401 291.072 38.7208C291.731 39.0405 292.298 39.5234 292.718 40.1235C299.284 49.4382 299.669 62.4024 315.031 68.0915C323.164 69.1744 330.941 72.1065 337.764 76.6627L409.71 170.574L313.084 255.071C325.356 195.506 259.972 148.578 265.385 113.407Z" fill="black"/>
<mask id="mask2" style="mask-type:alpha" maskUnits="userSpaceOnUse" x="245" y="38" width="165" height="218">
<path d="M265.385 113.407L249.825 114.839C249.014 114.916 248.198 114.764 247.469 114.401C246.74 114.037 246.128 113.476 245.701 112.782C245.275 112.088 245.052 111.289 245.057 110.474C245.063 109.659 245.297 108.863 245.732 108.174C251.576 98.9132 257.42 89.3631 263.263 79.5243C271.11 66.2815 278.493 53.2855 285.413 40.5362C285.763 39.8925 286.272 39.3489 286.891 38.9569C287.51 38.5649 288.219 38.3375 288.951 38.2962C289.682 38.2548 290.412 38.401 291.072 38.7208C291.731 39.0405 292.298 39.5234 292.718 40.1235C299.284 49.4382 299.669 62.4024 315.031 68.0915C323.164 69.1744 330.941 72.1065 337.764 76.6627L409.71 170.574L313.084 255.071C325.356 195.506 259.972 148.578 265.385 113.407Z" fill="black"/>
</mask>
<g mask="url(#mask2)">
<path d="M252.069 34.2024L270.961 274.431" stroke="#FF642D" stroke-width="1.2" stroke-linecap="round" stroke-linejoin="round"/>
<path d="M278.42 32.1287L297.312 272.357" stroke="#FF642D" stroke-width="1.2" stroke-linecap="round" stroke-linejoin="round"/>
<path d="M304.772 30.0583L323.661 270.287" stroke="#FF642D" stroke-width="1.2" stroke-linecap="round" stroke-linejoin="round"/>
<path d="M331.12 27.9843L350.012 268.212" stroke="#FF642D" stroke-width="1.2" stroke-linecap="round" stroke-linejoin="round"/>
<path d="M420.505 141.814L234.275 156.457" stroke="#FF642D" stroke-width="1.2" stroke-linecap="round" stroke-linejoin="round"/>
<path d="M422.579 168.162L236.349 182.808" stroke="#FF642D" stroke-width="1.2" stroke-linecap="round" stroke-linejoin="round"/>
<path d="M424.649 194.514L238.423 209.159" stroke="#FF642D" stroke-width="1.2" stroke-linecap="round" stroke-linejoin="round"/>
<path d="M426.723 220.865L240.493 235.507" stroke="#FF642D" stroke-width="1.2" stroke-linecap="round" stroke-linejoin="round"/>
<path d="M428.793 247.213L242.567 261.858" stroke="#FF642D" stroke-width="1.2" stroke-linecap="round" stroke-linejoin="round"/>
<path d="M412.217 36.4124L225.987 51.058" stroke="#FF642D" stroke-width="1.2" stroke-linecap="round" stroke-linejoin="round"/>
<path d="M414.29 62.7605L228.061 77.4062" stroke="#FF642D" stroke-width="1.2" stroke-linecap="round" stroke-linejoin="round"/>
<path d="M416.361 89.1118L230.131 103.758" stroke="#FF642D" stroke-width="1.2" stroke-linecap="round" stroke-linejoin="round"/>
<path d="M418.434 115.463L232.205 130.109" stroke="#FF642D" stroke-width="1.2" stroke-linecap="round" stroke-linejoin="round"/>
</g>
<path d="M285.662 75.7109C296.975 67.8662 301.73 63.4323 306.617 63.5107C300.638 57.2077 299.499 54.1551 294.519 30.6517C263.4 41.8082 264.45 79.4491 253.379 96.4243C250.797 100.377 248.212 104.269 245.742 108.191C245.307 108.879 245.072 109.676 245.067 110.491C245.061 111.305 245.284 112.105 245.711 112.799C246.137 113.493 246.75 114.053 247.479 114.416C248.208 114.779 249.024 114.93 249.835 114.852L265.395 113.42C265.688 110.258 271.841 85.2848 285.662 75.7109Z" fill="black"/>
<path d="M265.385 113.406L249.825 114.839C249.014 114.916 248.198 114.764 247.469 114.4C246.74 114.037 246.128 113.476 245.701 112.782C245.275 112.088 245.052 111.288 245.057 110.474C245.063 109.659 245.297 108.863 245.732 108.174C251.576 98.913 257.42 89.3629 263.263 79.5241C271.11 66.2813 278.493 53.2853 285.413 40.536C286.941 37.7255 291.61 37.1253 292.718 40.1233C297.971 54.3358 303.554 65.5639 315.031 68.0913C323.164 69.1742 330.941 72.1063 337.764 76.6625L409.71 170.574L313.084 255.071C325.356 195.506 259.972 148.578 265.385 113.406Z" stroke="black" stroke-width="1.2" stroke-linecap="round" stroke-linejoin="round"/>
<path d="M96.9492 268.564L133.908 313.613L320.884 310.694L314.619 238.553C299.301 263.793 238.9 284.567 208.811 284.069C147.401 283.06 122.55 260.14 96.9492 268.564Z" fill="black"/>
<mask id="mask3" style="mask-type:alpha" maskUnits="userSpaceOnUse" x="96" y="238" width="225" height="76">
<path d="M96.9492 268.564L133.908 313.613L320.884 310.694L314.619 238.553C299.301 263.793 238.9 284.567 208.811 284.069C147.401 283.06 122.55 260.14 96.9492 268.564Z" fill="black"/>
</mask>
<g mask="url(#mask3)">
<path d="M308.82 198.596L80.864 276.719" stroke="#FF642D" stroke-width="1.2" stroke-linecap="round" stroke-linejoin="round"/>
<path d="M317.388 223.6L89.4352 301.723" stroke="#FF642D" stroke-width="1.2" stroke-linecap="round" stroke-linejoin="round"/>
<path d="M286.627 262.083L98.0032 326.727" stroke="#FF642D" stroke-width="1.2" stroke-linecap="round" stroke-linejoin="round"/>
<path d="M334.527 273.608L106.574 351.731" stroke="#FF642D" stroke-width="1.2" stroke-linecap="round" stroke-linejoin="round"/>
<path d="M246.547 388.523L185.983 211.809" stroke="#FF642D" stroke-width="1.2" stroke-linecap="round" stroke-linejoin="round"/>
<path d="M221.543 397.094L160.982 220.381" stroke="#FF642D" stroke-width="1.2" stroke-linecap="round" stroke-linejoin="round"/>
<path d="M196.539 405.662L135.978 228.948" stroke="#FF642D" stroke-width="1.2" stroke-linecap="round" stroke-linejoin="round"/>
<path d="M171.535 414.233L110.974 237.52" stroke="#FF642D" stroke-width="1.2" stroke-linecap="round" stroke-linejoin="round"/>
<path d="M146.531 422.801L85.9701 246.087" stroke="#FF642D" stroke-width="1.2" stroke-linecap="round" stroke-linejoin="round"/>
<path d="M346.564 354.248L285.999 177.535" stroke="#FF642D" stroke-width="1.2" stroke-linecap="round" stroke-linejoin="round"/>
<path d="M321.559 362.816L260.995 186.103" stroke="#FF642D" stroke-width="1.2" stroke-linecap="round" stroke-linejoin="round"/>
<path d="M296.555 371.387L235.991 194.671" stroke="#FF642D" stroke-width="1.2" stroke-linecap="round" stroke-linejoin="round"/>
<path d="M271.551 379.955L210.987 203.241" stroke="#FF642D" stroke-width="1.2" stroke-linecap="round" stroke-linejoin="round"/>
</g>
<path d="M96.9492 268.564L133.908 313.613L320.884 310.693L316.259 237.823C300.911 263.949 238.918 284.567 208.821 284.069C147.401 283.06 122.55 260.139 96.9492 268.564Z" stroke="black" stroke-width="1.2" stroke-linecap="round" stroke-linejoin="round"/>
<path d="M186.716 41.1804C188.735 53.0191 222.113 53.0088 229.814 53.0088" stroke="#FF642D" stroke-width="1.2" stroke-linecap="round" stroke-linejoin="round"/>
<path d="M286.327 56.6108C290.812 50.0554 297.701 46.1501 299.683 45.2599" stroke="#FF642D" stroke-width="1.2" stroke-linecap="round" stroke-linejoin="round"/>
<path d="M277.523 84.9402C280.515 80.8451 283.988 77.1245 287.868 73.8587C298.305 65.1068 308.05 62.9785 309.697 62.3884" stroke="#FF642D" stroke-width="1.2" stroke-linecap="round" stroke-linejoin="round"/>
<path d="M263.802 115.668C264.761 111.7 265.957 107.793 267.384 103.969" stroke="#FF642D" stroke-width="1.2" stroke-linecap="round" stroke-linejoin="round"/>
<path d="M282.834 36.3033C277.489 39.8914 269.119 52.2417 264.29 65.5504" stroke="#FF642D" stroke-width="1.2" stroke-linecap="round" stroke-linejoin="round"/>
</g>
<path d="M275.692 269.819C275.951 269.458 272.643 255.232 272.643 255.232" stroke="black" stroke-width="1.2" stroke-linecap="round" stroke-linejoin="round"/>
<path d="M351.523 146.63C351.523 113.018 339.343 82.2504 319.157 58.5M126.557 296H304.192C304.737 296 305.275 295.869 305.758 295.617C306.242 295.365 306.658 295 306.971 294.553C307.283 294.106 307.483 293.59 307.553 293.049C307.623 292.508 307.562 291.959 307.374 291.447L294.802 257.179C329.145 232.465 351.529 192.17 351.529 146.63" stroke="white" stroke-width="2" stroke-miterlimit="10"/>
</g>
<defs>
<clipPath id="clip0">
<rect width="368" height="297.99" fill="white"/>
</clipPath>
</defs>
</svg>
